# xmcd
#
# Track frame offsets: 
#        150
#        18697
#        35122
#        52030
#        67092
#        85962
#        101232
#        125490
#        143777
#        166190
#        186005
#
# Disc length: 2805 seconds
#
# Revision: 0
# Processed by: cddbd v1.5.2PL0 Copyright (c) Steve Scherf et al.
# Submitted via: ExactAudioCopy v0.95a5
#
DISCID=a20af30b
DTITLE=Sam Taylor - Portrait: The Funky Side of Sam
DYEAR=2006
DGENRE=Blues
TTITLE0=Aching Hearts
TTITLE1=Running to My Window
TTITLE2=Freaks
TTITLE3=My Good Looking Days
TTITLE4=Here's to You Baby
TTITLE5=Little Head Thinking
TTITLE6=Some of It Back
TTITLE7=Spirit
TTITLE8=You Hooked Me
TTITLE9=Turn Me On
TTITLE10=A Thing For Pain
EXTD=
EXTT0=
EXTT1=
EXTT2=
EXTT3=
EXTT4=
EXTT5=
EXTT6=
EXTT7=
EXTT8=
EXTT9=
EXTT10=
PLAYORDER=
